<svg width="348" height="114" viewBox="0 0 348 114" fill="none" xmlns="http://www.w3.org/2000/svg">
<path d="M67.34 103.86L0.26001 70.32V54.72L67.34 21.18V34.752L18.98 58.464C17.004 59.4 15.132 60.232 13.364 60.96C11.7 61.584 10.452 62 9.62001 62.208C10.556 62.416 11.908 62.884 13.676 63.612C15.444 64.236 17.212 65.016 18.98 65.952L67.34 89.82V103.86Z" fill="white"/>
<path d="M91.4591 114V0.119995H164.779V21.96H114.547V47.232H160.723V69.072H114.859V114H91.4591Z" fill="#00FF80"/>
<path d="M209.178 114V21.96H180.318V0.119995H261.438V21.96H232.578V114H209.178Z" fill="#00FF80"/>
<path d="M280.877 103.86V90.288L329.237 66.576C331.213 65.64 333.033 64.86 334.697 64.236C336.465 63.508 337.765 63.04 338.597 62.832C337.661 62.624 336.309 62.208 334.541 61.584C332.773 60.856 331.005 60.024 329.237 59.088L280.877 35.22V21.18L347.957 54.72V70.32L280.877 103.86Z" fill="white"/>
</svg>
